# xmcd CD database file
#
# Track frame offsets:
#	150
#	6046
#	20048
#	26948
#	45243
#	48893
#	67568
#	72218
#	86999
#	92624
#	112434
#	121459
#	139378
#	144388
#	161953
#	167503
#	182363
#	186773
#	202537
#	213830
#	231262
#	239812
#	258675
#	265035
#	283005
#	290805
#	307222
#	312945
#
# Disc length: 4413 seconds
#
# Revision: 1
# Processed by: cddbd v1.5.2PL0 Copyright (c) Steve Scherf et al.
# Submitted via: CDex 1.70beta2
#
DISCID=a2113b1c
DTITLE=Guitarama - Méthode Jazz story
DYEAR=2010
DGENRE=Jazz
TTITLE0=Summertiem1
TTITLE1=Summertime2
TTITLE2=Manha de carnaval1
TTITLE3=Manha de carnaval2
TTITLE4=Blue monk1
TTITLE5=Blue monk2
TTITLE6=Daphné1
TTITLE7=Daphné2
TTITLE8=Les feuilles mortes1
TTITLE9=Les feuilles mortes2
TTITLE10=Nuages1
TTITLE11=Nuages2
TTITLE12=It's a raggy waltz
TTITLE13=It's a raggy waltz2
TTITLE14=Stompin' at the Savoy1
TTITLE15=Stompin' at the Savoy2
TTITLE16=So what1
TTITLE17=So what2
TTITLE18=Lil' Darlin'1
TTITLE19=Lil' Darlin'2
TTITLE20=Tears1
TTITLE21=Tears2
TTITLE22=Lullaby of Birdland1
TTITLE23=Lullaby of Birdland2
TTITLE24=Satin Doll1
TTITLE25=Satin Doll2
TTITLE26=On green Dolphin Street1
TTITLE27=On Green Dolphin Street2
EXTD=YEAR: 2010
EXTT0=
EXTT1=
EXTT2=
EXTT3=
EXTT4=
EXTT5=
EXTT6=
EXTT7=
EXTT8=
EXTT9=
EXTT10=
EXTT11=
EXTT12=
EXTT13=
EXTT14=
EXTT15=
EXTT16=
EXTT17=
EXTT18=
EXTT19=
EXTT20=
EXTT21=
EXTT22=
EXTT23=
EXTT24=
EXTT25=
EXTT26=
EXTT27=
PLAYORDER=
